<svg width="24" height="24" viewBox="0 0 24 24" fill="none" xmlns="http://www.w3.org/2000/svg">
    <g clip-path="url(#clip0_546_59251)">
        <path
            d="M17.9653 1.99805H3.132C2.88888 1.99805 2.65573 2.09462 2.48382 2.26653C2.31191 2.43844 2.21533 2.6716 2.21533 2.91471V17.748C2.21533 17.9912 2.31191 18.2243 2.48382 18.3962C2.65573 18.5681 2.88888 18.6647 3.132 18.6647H11.1153V12.2064H8.94867V9.70638H11.1153V7.83138C11.0704 7.39118 11.1224 6.94649 11.2676 6.52849C11.4128 6.1105 11.6476 5.72933 11.9557 5.41172C12.2638 5.09411 12.6376 4.84775 13.051 4.68991C13.4644 4.53208 13.9073 4.46659 14.3487 4.49805C14.9973 4.49406 15.6456 4.52744 16.2903 4.59805V6.84805H14.9653C13.9153 6.84805 13.7153 7.34805 13.7153 8.07305V9.68138H16.2153L15.8903 12.1814H13.7153V18.6647H17.9653C18.0857 18.6647 18.2049 18.641 18.3161 18.5949C18.4273 18.5489 18.5284 18.4813 18.6135 18.3962C18.6986 18.3111 18.7662 18.2101 18.8122 18.0988C18.8583 17.9876 18.882 17.8684 18.882 17.748V2.91471C18.882 2.79434 18.8583 2.67514 18.8122 2.56392C18.7662 2.45271 18.6986 2.35165 18.6135 2.26653C18.5284 2.18141 18.4273 2.11389 18.3161 2.06782C18.2049 2.02176 18.0857 1.99805 17.9653 1.99805Z"
            fill="#1A1C3B" />
    </g>
    <defs>
        <clipPath id="clip0_546_59251">
            <rect width="20" height="20" fill="white" transform="translate(0.548828 0.331543)" />
        </clipPath>
    </defs>
</svg>
    