<svg width="24" height="24" viewBox="0 0 24 24" fill="none" xmlns="http://www.w3.org/2000/svg">
    <path
        d="M16 7.83203C16 7.56681 16.1054 7.31246 16.2929 7.12492C16.4804 6.93739 16.7348 6.83203 17 6.83203C17.2652 6.83203 17.5196 6.93739 17.7071 7.12492C17.8946 7.31246 18 7.56681 18 7.83203C18 8.09725 17.8946 8.3516 17.7071 8.53914C17.5196 8.72667 17.2652 8.83203 17 8.83203C16.7348 8.83203 16.4804 8.72667 16.2929 8.53914C16.1054 8.3516 16 8.09725 16 7.83203Z"
        fill="black" />
    <path fill-rule="evenodd" clip-rule="evenodd"
        d="M12 8.08203C10.7402 8.08203 9.53204 8.58248 8.64124 9.47327C7.75045 10.3641 7.25 11.5723 7.25 12.832C7.25 14.0918 7.75045 15.3 8.64124 16.1908C9.53204 17.0816 10.7402 17.582 12 17.582C13.2598 17.582 14.468 17.0816 15.3588 16.1908C16.2496 15.3 16.75 14.0918 16.75 12.832C16.75 11.5723 16.2496 10.3641 15.3588 9.47327C14.468 8.58248 13.2598 8.08203 12 8.08203ZM8.75 12.832C8.75 11.9701 9.09241 11.1434 9.7019 10.5339C10.3114 9.92444 11.138 9.58203 12 9.58203C12.862 9.58203 13.6886 9.92444 14.2981 10.5339C14.9076 11.1434 15.25 11.9701 15.25 12.832C15.25 13.694 14.9076 14.5206 14.2981 15.1301C13.6886 15.7396 12.862 16.082 12 16.082C11.138 16.082 10.3114 15.7396 9.7019 15.1301C9.09241 14.5206 8.75 13.694 8.75 12.832Z"
        fill="black" />
    <path fill-rule="evenodd" clip-rule="evenodd"
        d="M17.2576 3.66506C13.7629 3.27766 10.2362 3.27766 6.74157 3.66506C4.72957 3.89006 3.10457 5.47506 2.86857 7.49707C2.45397 11.0416 2.45397 14.6225 2.86857 18.1671C3.10457 20.1891 4.72857 21.7741 6.74157 21.9991C10.2362 22.3861 13.7629 22.3861 17.2576 21.9991C19.2696 21.7741 20.8946 20.1891 21.1306 18.1671C21.5452 14.6225 21.5452 11.0416 21.1306 7.49707C20.8946 5.47506 19.2706 3.89006 17.2576 3.66506ZM6.90757 5.15506C10.2919 4.77994 13.7073 4.77994 17.0916 5.15506C18.4216 5.30506 19.4866 6.35407 19.6416 7.67207C20.0425 11.1004 20.0425 14.5637 19.6416 17.9921C19.5614 18.6371 19.2661 19.2363 18.8034 19.6928C18.3407 20.1493 17.7376 20.4366 17.0916 20.5081C13.7073 20.8832 10.2919 20.8832 6.90757 20.5081C6.26151 20.4366 5.65842 20.1493 5.19572 19.6928C4.73303 19.2363 4.43774 18.6371 4.35757 17.9921C3.95662 14.5637 3.95662 11.1004 4.35757 7.67207C4.43774 7.02702 4.73303 6.42784 5.19572 5.97132C5.65842 5.51479 6.26151 5.22657 6.90757 5.15506Z"
        fill="black" />
</svg>
    