<svg width="61" height="26" viewBox="0 0 62 26" fill="none" xmlns="http://www.w3.org/2000/svg">
    <g clip-path="url(#clip0_375_3712)">
        <path
            d="M10.912 3.23927C10.298 3.96582 9.31541 4.53907 8.33294 4.4571C8.21015 3.47473 8.6911 2.43076 9.25402 1.78598C9.868 1.03897 10.9427 0.506752 11.8126 0.46582C11.9149 1.48922 11.5157 2.49216 10.912 3.23927ZM11.8024 4.65163C10.3799 4.56977 9.16202 5.46004 8.48654 5.46004C7.80093 5.46004 6.76719 4.69256 5.64146 4.71303C4.17804 4.7335 2.81684 5.56237 2.06973 6.88263C0.534573 9.52306 1.67064 13.4326 3.15453 15.5817C3.88118 16.646 4.75108 17.8127 5.89728 17.7718C6.98219 17.7309 7.41197 17.0657 8.722 17.0657C10.0422 17.0657 10.4209 17.7718 11.5671 17.7513C12.7542 17.7309 13.5013 16.6871 14.228 15.6226C15.0568 14.415 15.3946 13.238 15.4151 13.1766C15.3946 13.1562 13.1227 12.2864 13.1022 9.66632C13.0818 7.47625 14.8932 6.43238 14.9751 6.37098C13.9516 4.85629 12.3551 4.69256 11.8024 4.65163ZM20.0206 1.68365V17.6389H22.4972V12.184H25.9256C29.0572 12.184 31.2576 10.0349 31.2576 6.92367C31.2576 3.81253 29.0982 1.68375 26.0075 1.68375L20.0206 1.68365ZM22.4972 3.77149H25.3525C27.5017 3.77149 28.7298 4.91769 28.7298 6.9338C28.7298 8.94991 27.5017 10.1064 25.3422 10.1064H22.4972V3.77149ZM35.781 17.7615C37.3367 17.7615 38.7796 16.9736 39.4346 15.725H39.4858V17.6388H41.7783V9.69702C41.7783 7.39439 39.9362 5.91039 37.1012 5.91039C34.471 5.91039 32.5265 7.41485 32.4549 9.48212H34.686C34.8702 8.49965 35.7809 7.85487 37.0296 7.85487C38.5443 7.85487 39.3937 8.56105 39.3937 9.86085V10.7409L36.3029 10.9251C33.4271 11.099 31.8716 12.276 31.8716 14.323C31.8716 16.3902 33.4783 17.7615 35.781 17.7615ZM36.4462 15.8682C35.1261 15.8682 34.2868 15.2338 34.2868 14.2615C34.2868 13.2586 35.0953 12.6752 36.6407 12.5831L39.3937 12.4092V13.3097C39.3937 14.8039 38.1247 15.8682 36.4463 15.8682M44.8384 21.9781C47.2537 21.9781 48.3896 21.0571 49.3824 18.2631L53.7318 6.06389H51.2142L48.2974 15.4895H48.2463L45.3296 6.06389H42.7403L46.9363 17.6797L46.7111 18.3859C46.3325 19.5832 45.7184 20.0438 44.6234 20.0438C44.429 20.0438 44.0503 20.0233 43.8967 20.0029V21.9167C44.04 21.9576 44.654 21.9781 44.8383 21.9781"
            fill="black" />
    </g>
    <defs>
        <clipPath id="clip0_375_3712">
            <rect width="60.8246" height="25.0664" fill="white"
                transform="translate(0.935547 0.298828)" />
        </clipPath>
    </defs>
</svg>
    