<svg width="43" height="41" viewBox="0 0 43 41" fill="none" xmlns="http://www.w3.org/2000/svg">
    <g clip-path="url(#clip0_375_3720)">
        <path
            d="M18.9465 9.69875C21.0423 9.69535 23.0961 10.2863 24.8696 11.403L23.8504 12.244C22.5834 13.2878 21.5634 14.5993 20.8635 16.0842C20.1637 17.5692 19.8015 19.1907 19.803 20.8322C19.8016 22.4738 20.1639 24.0953 20.8637 25.5802C21.5635 27.0651 22.5835 28.3766 23.8504 29.4205L24.8696 30.2597C23.4087 31.1775 21.7544 31.7432 20.0375 31.9122C18.3205 32.0812 16.5878 31.8488 14.976 31.2335C13.3642 30.6181 11.9174 29.6366 10.7499 28.3664C9.58244 27.0962 8.72611 25.572 8.24853 23.9141C7.77096 22.2563 7.6852 20.5101 7.99803 18.8135C8.31086 17.1168 9.01372 15.5161 10.0511 14.1376C11.0886 12.759 12.4321 11.6405 13.9759 10.8702C15.5196 10.0998 17.2213 9.69881 18.9465 9.69875ZM30.9365 9.69875C32.6399 9.69945 34.3206 10.091 35.8489 10.8434C37.3773 11.5957 38.7126 12.6887 39.7521 14.0383C40.7916 15.3879 41.5076 16.9579 41.8449 18.6277C42.1822 20.2975 42.1318 22.0224 41.6977 23.6696C41.2636 25.3169 40.4572 26.8425 39.3408 28.1291C38.2243 29.4157 36.8275 30.429 35.2579 31.0909C33.6882 31.7528 31.9876 32.0457 30.287 31.947C28.5864 31.8484 26.9311 31.3608 25.4485 30.5218L25.0134 30.2615L26.0326 29.4205C27.2995 28.3766 28.3195 27.0651 29.0193 25.5802C29.7191 24.0953 30.0813 22.4738 30.08 20.8322C30.08 17.5316 28.6412 14.5649 26.3632 12.5284L26.0326 12.244L25.0134 11.403C26.7869 10.2863 28.8407 9.69535 30.9365 9.69875ZM24.9415 15.9866C26.0525 17.3569 26.6573 19.0682 26.6543 20.8322C26.6575 22.5963 26.0526 24.3076 24.9415 25.6779C23.8304 24.3076 23.2255 22.5963 23.2286 20.8322C23.2256 19.0682 23.8305 17.3569 24.9415 15.9866Z"
            fill="black" />
    </g>
    <defs>
        <clipPath id="clip0_375_3720">
            <rect width="41.5063" height="40" fill="white" transform="translate(0.558594 0.832031)" />
        </clipPath>
    </defs>
</svg>
    