<svg width="47" height="26" viewBox="0 0 47 26" fill="none" xmlns="http://www.w3.org/2000/svg">
    <g clip-path="url(#clip0_375_3714)">
        <path
            d="M13.0096 12.9966C13.0096 13.4022 12.8699 13.7392 12.5903 14.0078C12.3108 14.2764 11.9682 14.4106 11.5627 14.4106C11.2448 14.4106 10.9899 14.323 10.7981 14.1476C10.6062 13.9722 10.5103 13.731 10.5103 13.4241C10.5103 13.0185 10.6473 12.6759 10.9214 12.3964C11.1954 12.1169 11.5353 11.9771 11.9408 11.9771C12.2478 11.9771 12.5026 12.0676 12.7054 12.2484C12.9082 12.4293 13.0096 12.6787 13.0096 12.9966ZM25.9172 10.5466C25.9172 11.007 25.7966 11.3194 25.5554 11.4838C25.3143 11.6483 24.9525 11.7305 24.4702 11.7305L23.9441 11.7469L24.2236 9.98754C24.2455 9.86696 24.3168 9.80667 24.4373 9.80667H24.7333C24.9745 9.80667 25.1663 9.81763 25.3088 9.83956C25.4513 9.86148 25.5883 9.92999 25.7199 10.0451C25.8514 10.1602 25.9172 10.3274 25.9172 10.5466ZM31.6886 12.9966C31.6886 13.3912 31.5488 13.7255 31.2693 13.9996C30.9898 14.2736 30.6527 14.4106 30.2581 14.4106C29.9402 14.4106 29.6826 14.323 29.4853 14.1476C29.2879 13.9722 29.1893 13.731 29.1893 13.4241C29.1893 13.0185 29.3263 12.6759 29.6004 12.3964C29.8744 12.1169 30.2142 11.9771 30.6198 11.9771C30.9267 11.9771 31.1816 12.0676 31.3844 12.2484C31.5872 12.4293 31.6886 12.6787 31.6886 12.9966ZM9.1949 10.1849C9.1949 9.53811 8.98388 9.06949 8.56185 8.779C8.13982 8.48851 7.58899 8.34327 6.90936 8.34327H4.27852C4.07024 8.34327 3.95514 8.4474 3.93322 8.65568L2.86444 15.3643C2.85348 15.4301 2.86992 15.4904 2.91377 15.5452C2.95761 15.6 3.01242 15.6274 3.07819 15.6274H4.32784C4.54708 15.6274 4.66766 15.5233 4.68958 15.315L4.98555 13.5063C4.99652 13.4186 5.03488 13.3473 5.10065 13.2925C5.16642 13.2377 5.24864 13.2021 5.34729 13.1857C5.44595 13.1692 5.53913 13.161 5.62682 13.161C5.71452 13.161 5.81865 13.1665 5.93923 13.1774C6.05981 13.1884 6.13655 13.1939 6.16943 13.1939C7.11215 13.1939 7.85207 12.9281 8.3892 12.3964C8.92634 11.8648 9.1949 11.1276 9.1949 10.1849ZM14.2757 15.315L14.9499 11.0234C14.9608 10.9577 14.9444 10.8974 14.9005 10.8426C14.8567 10.7878 14.8019 10.7604 14.7361 10.7604H13.4865C13.333 10.7604 13.2398 10.9412 13.2069 11.303C12.911 10.8645 12.3903 10.6453 11.6449 10.6453C10.8556 10.6453 10.1842 10.9412 9.63063 11.5332C9.07706 12.1251 8.80027 12.8212 8.80027 13.6214C8.80027 14.2681 8.98937 14.7833 9.36755 15.167C9.74573 15.5507 10.2527 15.7425 10.8885 15.7425C11.1954 15.7425 11.5133 15.6767 11.8422 15.5452C12.171 15.4137 12.4341 15.2383 12.6314 15.019C12.5876 15.1506 12.5657 15.2657 12.5657 15.3643C12.5657 15.5397 12.6369 15.6274 12.7794 15.6274H13.914C14.1222 15.6274 14.2428 15.5233 14.2757 15.315ZM21.6256 10.9906C21.6256 10.9357 21.6037 10.8837 21.5599 10.8343C21.516 10.785 21.4667 10.7604 21.4119 10.7604H20.1458C20.0252 10.7604 19.9265 10.8152 19.8498 10.9248L18.1069 13.4899L17.3834 11.0234C17.3286 10.848 17.208 10.7604 17.0217 10.7604H15.7884C15.7336 10.7604 15.6843 10.785 15.6405 10.8343C15.5966 10.8837 15.5747 10.9357 15.5747 10.9906C15.5747 11.0125 15.6816 11.3358 15.8953 11.9607C16.1091 12.5855 16.3393 13.2597 16.5859 13.9831C16.8326 14.7066 16.9614 15.0903 16.9723 15.1341C16.0735 16.3619 15.624 17.0196 15.624 17.1073C15.624 17.2498 15.6953 17.321 15.8378 17.321H17.1039C17.2244 17.321 17.3231 17.2662 17.3998 17.1566L21.5927 11.1057C21.6147 11.0837 21.6256 11.0454 21.6256 10.9906ZM27.8739 10.1849C27.8739 9.53811 27.6629 9.06949 27.2408 8.779C26.8188 8.48851 26.268 8.34327 25.5883 8.34327H22.9739C22.7547 8.34327 22.6341 8.4474 22.6122 8.65568L21.5434 15.3643C21.5324 15.4301 21.5489 15.4904 21.5927 15.5452C21.6366 15.6 21.6914 15.6274 21.7572 15.6274H23.1055C23.237 15.6274 23.3247 15.5562 23.3686 15.4137L23.6645 13.5063C23.6755 13.4186 23.7139 13.3473 23.7796 13.2925C23.8454 13.2377 23.9276 13.2021 24.0263 13.1857C24.1249 13.1692 24.2181 13.161 24.3058 13.161C24.3935 13.161 24.4976 13.1665 24.6182 13.1774C24.7388 13.1884 24.8155 13.1939 24.8484 13.1939C25.7911 13.1939 26.531 12.9281 27.0682 12.3964C27.6053 11.8648 27.8739 11.1276 27.8739 10.1849ZM32.9547 15.315L33.6288 11.0234C33.6398 10.9577 33.6234 10.8974 33.5795 10.8426C33.5357 10.7878 33.4809 10.7604 33.4151 10.7604H32.1654C32.012 10.7604 31.9188 10.9412 31.8859 11.303C31.6009 10.8645 31.0802 10.6453 30.3238 10.6453C29.5346 10.6453 28.8632 10.9412 28.3096 11.5332C27.756 12.1251 27.4792 12.8212 27.4792 13.6214C27.4792 14.2681 27.6683 14.7833 28.0465 15.167C28.4247 15.5507 28.9317 15.7425 29.5675 15.7425C29.8854 15.7425 30.2087 15.6767 30.5376 15.5452C30.8665 15.4137 31.1241 15.2383 31.3104 15.019C31.3104 15.03 31.2994 15.0793 31.2775 15.167C31.2556 15.2547 31.2446 15.3205 31.2446 15.3643C31.2446 15.5397 31.3159 15.6274 31.4584 15.6274H32.5929C32.8012 15.6274 32.9218 15.5233 32.9547 15.315ZM36.5392 8.58991V8.57347C36.5392 8.42 36.468 8.34327 36.3255 8.34327H35.1087C34.9881 8.34327 34.9169 8.40356 34.8949 8.52414L33.8261 15.3643L33.8097 15.3972C33.8097 15.452 33.8316 15.5041 33.8755 15.5534C33.9193 15.6027 33.9741 15.6274 34.0399 15.6274H35.1251C35.3334 15.6274 35.4485 15.5233 35.4704 15.315L36.5392 8.58991ZM7.20533 10.7932C7.15052 11.1769 7.00801 11.429 6.77781 11.5496C6.54762 11.6702 6.21876 11.7305 5.79125 11.7305L5.24864 11.7469L5.52817 9.98754C5.55009 9.86696 5.62134 9.80667 5.74192 9.80667H6.05433C6.49281 9.80667 6.8107 9.8697 7.00801 9.99576C7.20533 10.1218 7.2711 10.3877 7.20533 10.7932ZM38.6439 2.30877V23.3555C38.6439 23.9255 38.4356 24.4188 38.0191 24.8354C37.6025 25.2519 37.1092 25.4602 36.5392 25.4602H2.86444C2.29442 25.4602 1.80114 25.2519 1.38459 24.8354C0.968041 24.4188 0.759766 23.9255 0.759766 23.3555V2.30877C0.759766 1.73876 0.968041 1.24548 1.38459 0.828926C1.80114 0.412376 2.29442 0.204102 2.86444 0.204102H36.5392C37.1092 0.204102 37.6025 0.412376 38.0191 0.828926C38.4356 1.24548 38.6439 1.73876 38.6439 2.30877Z"
            fill="black" />
    </g>
    <defs>
        <clipPath id="clip0_375_3714">
            <rect width="45.9446" height="25.2561" fill="white"
                transform="translate(0.759766 0.204102)" />
        </clipPath>
    </defs>
</svg>
    