<svg width="27" height="19" viewBox="0 0 27 19" fill="none" xmlns="http://www.w3.org/2000/svg">
    <path
        d="M16.2384 4.76014H1.83301C1.54293 4.76014 1.26473 4.64491 1.05961 4.43979C0.854492 4.23467 0.739258 3.95647 0.739258 3.66639C0.739258 3.37631 0.854492 3.09811 1.05961 2.89299C1.26473 2.68788 1.54293 2.57264 1.83301 2.57264H16.2384C16.4649 1.93288 16.884 1.37903 17.4382 0.98731C17.9924 0.595589 18.6544 0.385254 19.333 0.385254C20.0117 0.385254 20.6736 0.595589 21.2278 0.98731C21.782 1.37903 22.2012 1.93288 22.4276 2.57264H25.1663C25.4564 2.57264 25.7346 2.68788 25.9397 2.89299C26.1449 3.09811 26.2601 3.37631 26.2601 3.66639C26.2601 3.95647 26.1449 4.23467 25.9397 4.43979C25.7346 4.64491 25.4564 4.76014 25.1663 4.76014H22.4276C22.2012 5.3999 21.782 5.95375 21.2278 6.34547C20.6736 6.7372 20.0117 6.94753 19.333 6.94753C18.6544 6.94753 17.9924 6.7372 17.4382 6.34547C16.884 5.95375 16.4649 5.3999 16.2384 4.76014ZM25.1663 16.4268C25.4564 16.4268 25.7346 16.3116 25.9397 16.1065C26.1449 15.9013 26.2601 15.6231 26.2601 15.3331C26.2601 15.043 26.1449 14.7648 25.9397 14.5597C25.7346 14.3545 25.4564 14.2393 25.1663 14.2393H10.7609C10.5345 13.5996 10.1153 13.0457 9.56115 12.654C9.00696 12.2623 8.34499 12.0519 7.66634 12.0519C6.98769 12.0519 6.32572 12.2623 5.77154 12.654C5.21735 13.0457 4.7982 13.5996 4.57176 14.2393H1.83301C1.54293 14.2393 1.26473 14.3545 1.05961 14.5597C0.854492 14.7648 0.739258 15.043 0.739258 15.3331C0.739258 15.6231 0.854492 15.9013 1.05961 16.1065C1.26473 16.3116 1.54293 16.4268 1.83301 16.4268H4.57176C4.79753 17.0672 5.21643 17.6218 5.7707 18.0141C6.32496 18.4064 6.98729 18.6171 7.66634 18.6171C8.34539 18.6171 9.00772 18.4064 9.56199 18.0141C10.1163 17.6218 10.5352 17.0672 10.7609 16.4268H25.1663Z"
        fill="#1A1A1A" />
</svg>
    