<svg width="28" height="25" viewBox="0 0 28 25" fill="none" xmlns="http://www.w3.org/2000/svg">
    <path
        d="M12.5155 22.2137L12.5146 22.2128C9.06813 19.0876 6.26112 16.5377 4.30792 14.1481C2.36206 11.7675 1.33341 9.6275 1.33341 7.33333C1.33341 3.58232 4.26081 0.666667 8.00008 0.666667C10.1185 0.666667 12.1628 1.65631 13.4942 3.20752L14.0001 3.79695L14.506 3.20752C15.8373 1.65631 17.8816 0.666667 20.0001 0.666667C23.7394 0.666667 26.6667 3.58232 26.6667 7.33333C26.6667 9.6275 25.6381 11.7675 23.6922 14.1481C21.739 16.5377 18.932 19.0876 15.4856 22.2128L15.4846 22.2137L14.0001 23.5651L12.5155 22.2137Z"
        stroke="#1A1C3B" stroke-width="1.33333" />
</svg>
    