<svg width="17" height="17" viewBox="0 0 17 17" fill="none" xmlns="http://www.w3.org/2000/svg">
    <path
        d="M0 8.5C0 6.24566 0.895533 4.08365 2.48959 2.48959C4.08365 0.895533 6.24566 0 8.5 0C10.7543 0 12.9163 0.895533 14.5104 2.48959C16.1045 4.08365 17 6.24566 17 8.5C17 10.7543 16.1045 12.9163 14.5104 14.5104C12.9163 16.1045 10.7543 17 8.5 17C6.24566 17 4.08365 16.1045 2.48959 14.5104C0.895533 12.9163 0 10.7543 0 8.5ZM8.5 1.59375C6.66835 1.59375 4.91172 2.32137 3.61654 3.61654C2.32137 4.91172 1.59375 6.66835 1.59375 8.5C1.59375 10.3317 2.32137 12.0883 3.61654 13.3835C4.91172 14.6786 6.66835 15.4062 8.5 15.4062C10.3317 15.4062 12.0883 14.6786 13.3835 13.3835C14.6786 12.0883 15.4062 10.3317 15.4062 8.5C15.4062 6.66835 14.6786 4.91172 13.3835 3.61654C12.0883 2.32137 10.3317 1.59375 8.5 1.59375ZM6.90625 8.23438C6.90625 8.02303 6.99021 7.82034 7.13965 7.6709C7.28909 7.52146 7.49178 7.4375 7.70312 7.4375H8.76562C8.97697 7.4375 9.17966 7.52146 9.3291 7.6709C9.47854 7.82034 9.5625 8.02303 9.5625 8.23438V11.1562H9.82812C10.0395 11.1562 10.2422 11.2402 10.3916 11.3896C10.541 11.5391 10.625 11.7418 10.625 11.9531C10.625 12.1645 10.541 12.3672 10.3916 12.5166C10.2422 12.666 10.0395 12.75 9.82812 12.75H7.70312C7.49178 12.75 7.28909 12.666 7.13965 12.5166C6.99021 12.3672 6.90625 12.1645 6.90625 11.9531C6.90625 11.7418 6.99021 11.5391 7.13965 11.3896C7.28909 11.2402 7.49178 11.1562 7.70312 11.1562H7.96875V9.03125H7.70312C7.49178 9.03125 7.28909 8.94729 7.13965 8.79785C6.99021 8.64841 6.90625 8.44572 6.90625 8.23438ZM8.5 6.375C8.21821 6.375 7.94796 6.26306 7.7487 6.0638C7.54944 5.86454 7.4375 5.59429 7.4375 5.3125C7.4375 5.03071 7.54944 4.76046 7.7487 4.5612C7.94796 4.36194 8.21821 4.25 8.5 4.25C8.78179 4.25 9.05204 4.36194 9.2513 4.5612C9.45056 4.76046 9.5625 5.03071 9.5625 5.3125C9.5625 5.59429 9.45056 5.86454 9.2513 6.0638C9.05204 6.26306 8.78179 6.375 8.5 6.375Z"
        fill="#ACA6A6" />
</svg>
    