<svg width="30" height="30" viewBox="0 0 30 30" fill="none" xmlns="http://www.w3.org/2000/svg">
    <path fill-rule="evenodd" clip-rule="evenodd"
        d="M15.5 15C18.2625 15 20.5 12.7625 20.5 10C20.5 7.2375 18.2625 5 15.5 5C12.7375 5 10.5 7.2375 10.5 10C10.5 12.7625 12.7375 15 15.5 15ZM21.75 10C21.75 13.4531 18.9531 16.25 15.5 16.25C12.0469 16.25 9.25 13.4531 9.25 10C9.25 6.54688 12.0469 3.75 15.5 3.75C18.9531 3.75 21.75 6.54688 21.75 10ZM6.26437 21.3825C5.6375 21.8888 5.5 22.2681 5.5 22.5V25H25.5V22.5C25.5 22.2687 25.3625 21.8881 24.735 21.3825C24.1225 20.8881 23.2087 20.4169 22.1012 20.0094C19.8875 19.195 17.2206 18.75 15.5 18.75C13.7794 18.75 11.1125 19.195 8.89875 20.0094C7.79125 20.4169 6.8775 20.8881 6.26437 21.3825ZM15.5 17.5C11.7456 17.5 4.25 19.3969 4.25 22.5V26.25H26.75V22.5C26.75 19.3969 19.255 17.5 15.5 17.5Z"
        fill="black" />
</svg>
    