<svg width="150" height="170" viewBox="0 0 150 171" fill="none" xmlns="http://www.w3.org/2000/svg">
    <g clip-path="url(#clip0_375_3598)">
        <path
            d="M15.8659 137.764L2.08597 137.776V137.426C5.25668 137.426 5.32902 136.256 5.31696 132.326L5.29285 94.989C5.29285 91.1311 5.22052 89.8894 2.0498 89.8894V89.5397H10.5251C18.6508 89.5397 28.7175 89.3951 28.7175 97.1109C28.7175 102.283 24.3171 104.067 18.8678 104.694C28.0304 105.309 35.6135 108.89 35.6135 120.945C35.6376 134.315 26.4751 137.764 15.8659 137.764ZM9.91028 89.9496L9.92233 104.634H12.5385C20.0493 104.429 24.0398 103.115 24.0398 97.1229C24.0398 90.5766 19.4224 89.9617 10.5975 89.9617L9.91028 89.9496ZM9.93439 137.354C12.3456 137.354 15.5163 137.354 15.8539 137.354C24.7391 137.354 31.0082 134.111 31.0082 120.945C30.9961 107.78 24.6667 105.032 15.8418 105.032C15.4922 105.032 12.5385 105.032 9.92233 105.032L9.93439 137.354Z"
            fill="black" />
        <path
            d="M38.374 113.64C38.362 100.137 44.9807 89.2503 55.385 89.2383C65.7892 89.2383 72.408 100.113 72.42 113.615C72.4321 127.046 66.0304 138.005 55.4091 138.017C44.7999 138.029 38.3861 127.082 38.374 113.64ZM43.0638 113.64C43.0759 126.865 46.5239 137.619 55.4091 137.607C64.2943 137.607 67.8026 126.853 67.8026 113.627C67.8026 100.402 64.2099 89.6482 55.385 89.6602C46.56 89.6723 43.0517 100.414 43.0638 113.64Z"
            fill="black" />
        <path
            d="M15.8659 137.764L2.08597 137.776V137.426C5.25668 137.426 5.32902 136.256 5.31696 132.326L5.29285 94.989C5.29285 91.1311 5.22052 89.8894 2.0498 89.8894V89.5397H10.5251C18.6508 89.5397 28.7175 89.3951 28.7175 97.1109C28.7175 102.283 24.3171 104.067 18.8678 104.694C28.0304 105.309 35.6135 108.89 35.6135 120.945C35.6377 134.315 26.4751 137.764 15.8659 137.764ZM9.91028 89.9496L9.92233 104.634H12.5385C20.0493 104.429 24.0398 103.115 24.0398 97.1229C24.0398 90.5766 19.4224 89.9617 10.5975 89.9617L9.91028 89.9496ZM9.93439 137.354C12.3456 137.354 15.5163 137.354 15.8539 137.354C24.7391 137.354 31.0082 134.111 31.0082 120.945C30.9961 107.78 24.6667 105.032 15.8418 105.032C15.4922 105.032 12.5385 105.032 9.92233 105.032L9.93439 137.354Z"
            stroke="black" stroke-width="1.35268" stroke-miterlimit="10" />
        <path
            d="M38.374 113.64C38.362 100.137 44.9807 89.2503 55.385 89.2383C65.7892 89.2383 72.408 100.113 72.42 113.615C72.4321 127.046 66.0304 138.005 55.4091 138.017C44.7999 138.029 38.3861 127.082 38.374 113.64ZM43.0638 113.64C43.0759 126.865 46.5239 137.619 55.4091 137.607C64.2943 137.607 67.8026 126.853 67.8026 113.627C67.8026 100.402 64.2099 89.6482 55.385 89.6602C46.56 89.6723 43.0517 100.414 43.0638 113.64Z"
            stroke="black" stroke-width="1.35268" stroke-miterlimit="10" />
        <path
            d="M86.2125 137.727H75.1934V137.378C78.3641 137.378 78.4364 136.208 78.4244 132.278L78.4003 94.9286C78.4003 91.0707 78.3279 89.829 75.1572 89.829V89.4793H86.1764V89.829C83.0056 89.829 83.0056 91.1431 83.0056 94.9286L83.0177 120.005L99.1968 94.9166C101.68 91.0587 102.5 89.8169 99.3294 89.8169L99.5343 89.4673H106.563L106.358 89.8169C103.187 89.8169 102.295 91.131 99.884 94.9166L90.0584 110.095L102.271 132.278C104.405 136.136 105.104 137.378 108.335 137.378L108.468 137.727H97.4487L97.2437 137.378C100.487 137.378 99.7875 136.208 97.6536 132.278L87.5869 113.953L83.0418 121.054V132.29C83.0418 136.148 83.0418 137.39 86.2125 137.39V137.727Z"
            fill="black" />
        <path
            d="M86.2125 137.727H75.1934V137.378C78.3641 137.378 78.4364 136.208 78.4244 132.278L78.4003 94.9286C78.4003 91.0707 78.3279 89.829 75.1572 89.829V89.4793H86.1764V89.829C83.0056 89.829 83.0056 91.1431 83.0056 94.9286L83.0177 120.005L99.1968 94.9166C101.68 91.0587 102.5 89.8169 99.3294 89.8169L99.5343 89.4673H106.563L106.358 89.8169C103.187 89.8169 102.295 91.131 99.884 94.9166L90.0584 110.095L102.271 132.278C104.405 136.136 105.104 137.378 108.335 137.378L108.468 137.727H97.4487L97.2437 137.378C100.487 137.378 99.7875 136.208 97.6536 132.278L87.5869 113.953L83.0418 121.054V132.29C83.0418 136.148 83.0418 137.39 86.2125 137.39V137.727Z"
            stroke="black" stroke-width="1.35268" stroke-miterlimit="10" />
        <path
            d="M105.08 113.603C105.068 100.101 111.687 89.2142 122.091 89.2022C132.495 89.1901 139.114 100.077 139.126 113.579C139.138 127.01 132.736 137.968 122.115 137.98C111.494 137.993 105.08 127.046 105.08 113.603ZM109.758 113.603C109.77 126.829 113.218 137.583 122.103 137.571C130.988 137.571 134.497 126.817 134.497 113.591C134.485 100.366 130.904 89.6121 122.079 89.6241C113.266 89.6241 109.758 100.378 109.758 113.603Z"
            fill="black" />
        <path
            d="M147.927 93.8074C147.927 95.459 147.445 100.836 143.527 102.837C145.046 100.836 145.456 97.8702 144.973 96.7731C142.912 96.7731 142.008 95.2541 141.935 93.8074C141.863 92.1557 143.237 90.7693 144.961 90.7693C146.613 90.7813 147.915 92.1557 147.927 93.8074Z"
            fill="black" />
        <path
            d="M105.08 113.603C105.068 100.101 111.687 89.2142 122.091 89.2022C132.495 89.1901 139.114 100.077 139.126 113.579C139.138 127.01 132.736 137.968 122.115 137.98C111.494 137.993 105.08 127.046 105.08 113.603ZM109.758 113.603C109.77 126.829 113.218 137.583 122.103 137.571C130.988 137.571 134.497 126.817 134.497 113.591C134.485 100.366 130.904 89.6121 122.079 89.6241C113.266 89.6241 109.758 100.378 109.758 113.603Z"
            stroke="black" stroke-width="1.35268" stroke-miterlimit="10" />
        <path
            d="M147.927 93.8074C147.927 95.459 147.445 100.836 143.527 102.837C145.046 100.836 145.456 97.8702 144.973 96.7731C142.912 96.7731 142.008 95.2541 141.935 93.8074C141.863 92.1557 143.237 90.7693 144.961 90.7693C146.613 90.7813 147.915 92.1557 147.927 93.8074Z"
            stroke="black" stroke-width="1.35268" stroke-miterlimit="10" />
        <path
            d="M92.5177 40.4117C92.5177 37.253 90.9745 34.2873 88.3825 32.4789C90.9745 30.6705 92.5298 27.7047 92.5177 24.5461V22.6171H83.8495C82.3184 22.6171 81.0766 23.8589 81.0766 25.39V26.2218C81.0766 28.7054 79.0633 30.7308 76.5677 30.7308H65.6209V4.3162H76.5556C79.0512 4.3162 81.0646 6.3416 81.0646 8.82512V15.8176H92.5056V10.5009C92.5056 5.16011 88.1776 0.832031 82.8368 0.832031H49.6709V4.3162C52.1665 4.3162 54.1798 6.32954 54.1798 8.82512V45.7283H65.6209V34.227H76.5556C79.0512 34.227 81.0646 36.2524 81.0646 38.7359V56.1206C81.0646 58.6161 79.0392 60.6295 76.5556 60.6295H65.6209V55.2887C65.6209 53.7576 64.3791 52.5158 62.848 52.5158H54.1798V56.1085C54.1798 58.6041 52.1665 60.6174 49.6709 60.6174V64.1257H82.8368C88.1776 64.1257 92.5057 59.7976 92.5177 54.4568V40.4117Z"
            fill="black" />
        <path
            d="M68.3338 48.8268H74.9043C76.4354 48.8268 77.6772 47.5851 77.6772 46.054V45.427H46.0062V18.9281H48.0196C49.5507 18.9281 50.7924 17.6863 50.7924 16.1552V15.5283H42.6064V48.8268H68.3338Z"
            fill="black" />
        <path d="M65.6328 17.0593H104.2V20.0492L96.6889 28.6571L115.761 44.6915V47.3318H92.5176"
            stroke="black" stroke-width="3.33829" stroke-miterlimit="10" />
        <path
            d="M38.5918 155.51H40.1952V159.512L44.463 155.498H46.6331L42.8596 159.09L46.5125 164.166H44.6559L41.7505 160.151L40.2073 161.634V164.178H38.6039V155.51H38.5918Z"
            fill="black" />
        <path
            d="M38.5918 155.51H40.1952V159.512L44.463 155.498H46.6331L42.8596 159.09L46.5125 164.166H44.6559L41.7505 160.151L40.2073 161.634V164.178H38.6039V155.51H38.5918Z"
            stroke="black" stroke-width="0.077158" stroke-miterlimit="10" />
        <path
            d="M63.1368 161.007L59.3633 155.498H61.2199L63.9445 159.452L66.6692 155.498H68.5258L64.7523 161.007V164.166H63.1488V161.007H63.1368Z"
            fill="black" />
        <path d="M81.751 155.498H83.3544V164.154H81.751V155.498Z" fill="black" />
        <path
            d="M96.5918 155.498H98.2555L100.787 162.55H102.029L104.561 155.498H106.224L103.138 164.154H99.6781L96.5918 155.498Z"
            fill="black" />
        <path
            d="M63.1368 161.007L59.3633 155.498H61.2199L63.9445 159.452L66.6692 155.498H68.5258L64.7523 161.007V164.166H63.1488V161.007H63.1368Z"
            stroke="black" stroke-width="0.077158" stroke-miterlimit="10" />
        <path d="M81.751 155.498H83.3544V164.154H81.751V155.498Z" stroke="black"
            stroke-width="0.077158" stroke-miterlimit="10" />
        <path
            d="M96.5918 155.498H98.2555L100.787 162.55H102.029L104.561 155.498H106.224L103.138 164.154H99.6781L96.5918 155.498Z"
            stroke="black" stroke-width="0.077158" stroke-miterlimit="10" />
    </g>
    <defs>
        <clipPath id="clip0_375_3598">
            <rect width="150" height="170.109" fill="white" transform="translate(0 0.832031)" />
        </clipPath>
    </defs>
</svg>
    