<svg width="157" height="50" viewBox="0 0 157 50" fill="none" xmlns="http://www.w3.org/2000/svg">
<g clip-path="url(#clip0_375_3843)">
<path d="M82.2888 36.7062H74.6494V36.5124C76.4072 36.5124 76.4473 35.8641 76.4473 33.6853V12.9862C76.4473 10.8474 76.4072 10.159 74.6494 10.159V9.96517H79.348C83.8527 9.96517 89.4335 9.89165 89.4335 14.1692C89.4335 17.0364 86.9873 18.0256 83.973 18.3731C89.0526 18.714 93.2566 20.7057 93.2566 27.3893C93.2499 34.7947 88.1703 36.7062 82.2888 36.7062ZM79.0071 10.1991V18.333H80.4575C84.6213 18.2194 86.8336 17.4909 86.8336 14.1692C86.8336 10.54 84.2738 10.1991 79.3881 10.1991H79.0071ZM79.0071 36.479C80.3438 36.479 82.1016 36.479 82.2888 36.479C87.2146 36.479 90.6901 34.6811 90.6901 27.3893C90.6901 20.0908 87.1745 18.567 82.2888 18.567C82.0949 18.567 80.4575 18.567 79.0071 18.567V36.479Z" fill="black"/>
<path d="M94.7803 23.339C94.7803 15.8534 98.4496 9.81812 104.218 9.81812C109.985 9.81812 113.655 15.8534 113.655 23.339C113.655 30.7846 110.106 36.86 104.218 36.86C98.3293 36.86 94.7803 30.7846 94.7803 23.339ZM97.3802 23.339C97.3802 30.6709 99.2917 36.6327 104.218 36.6327C109.143 36.6327 111.095 30.6709 111.095 23.339C111.095 16.0071 109.11 10.0454 104.218 10.0454C99.3251 10.0454 97.3802 16.0004 97.3802 23.339Z" fill="black"/>
<path d="M82.2888 36.7062H74.6494V36.5124C76.4072 36.5124 76.4473 35.8641 76.4473 33.6853V12.9862C76.4473 10.8474 76.4072 10.159 74.6494 10.159V9.96517H79.348C83.8527 9.96517 89.4335 9.89165 89.4335 14.1692C89.4335 17.0364 86.9873 18.0256 83.973 18.3731C89.0526 18.714 93.2566 20.7057 93.2566 27.3893C93.2499 34.7947 88.1703 36.7062 82.2888 36.7062ZM79.0071 10.1991V18.333H80.4575C84.6213 18.2194 86.8336 17.4909 86.8336 14.1692C86.8336 10.54 84.2738 10.1991 79.3881 10.1991H79.0071ZM79.0071 36.479C80.3438 36.479 82.1016 36.479 82.2888 36.479C87.2146 36.479 90.6901 34.6811 90.6901 27.3893C90.6901 20.0908 87.1745 18.567 82.2888 18.567C82.0949 18.567 80.4575 18.567 79.0071 18.567V36.479Z" stroke="black" stroke-width="0.7499" stroke-miterlimit="10"/>
<path d="M94.7803 23.339C94.7803 15.8534 98.4496 9.81812 104.218 9.81812C109.985 9.81812 113.655 15.8534 113.655 23.339C113.655 30.7846 110.106 36.86 104.218 36.86C98.3293 36.86 94.7803 30.7846 94.7803 23.339ZM97.3802 23.339C97.3802 30.6709 99.2917 36.6327 104.218 36.6327C109.143 36.6327 111.095 30.6709 111.095 23.339C111.095 16.0071 109.11 10.0454 104.218 10.0454C99.3251 10.0454 97.3802 16.0004 97.3802 23.339Z" stroke="black" stroke-width="0.7499" stroke-miterlimit="10"/>
<path d="M121.288 36.7064H115.179V36.5126C116.936 36.5126 116.977 35.8643 116.977 33.6854V12.9863C116.977 10.8476 116.936 10.1592 115.179 10.1592V9.96533H121.288V10.1592C119.53 10.1592 119.53 10.8877 119.53 12.9863V26.8882L128.506 12.9863C129.883 10.8476 130.337 10.1592 128.579 10.1592L128.693 9.96533H132.589L132.476 10.1592C130.718 10.1592 130.223 10.8877 128.887 12.9863L123.426 21.3876L130.19 33.6854C131.373 35.8242 131.754 36.5126 133.552 36.5126L133.625 36.7064H127.517L127.403 36.5126C129.201 36.5126 128.813 35.8643 127.63 33.6854L122.056 23.5264L119.536 27.463V33.6921C119.536 35.8309 119.536 36.5193 121.294 36.5193V36.7064H121.288Z" fill="black"/>
<path d="M121.288 36.7064H115.179V36.5126C116.936 36.5126 116.977 35.8643 116.977 33.6854V12.9863C116.977 10.8476 116.936 10.1592 115.179 10.1592V9.96533H121.288V10.1592C119.53 10.1592 119.53 10.8877 119.53 12.9863V26.8882L128.506 12.9863C129.883 10.8476 130.337 10.1592 128.579 10.1592L128.693 9.96533H132.589L132.476 10.1592C130.718 10.1592 130.223 10.8877 128.887 12.9863L123.426 21.3876L130.19 33.6854C131.373 35.8242 131.754 36.5126 133.552 36.5126L133.625 36.7064H127.517L127.403 36.5126C129.201 36.5126 128.813 35.8643 127.63 33.6854L122.056 23.5264L119.536 27.463V33.6921C119.536 35.8309 119.536 36.5193 121.294 36.5193V36.7064H121.288Z" stroke="black" stroke-width="0.7499" stroke-miterlimit="10"/>
<path d="M131.754 23.339C131.754 15.8534 135.423 9.81812 141.191 9.81812C146.959 9.81812 150.628 15.8534 150.628 23.339C150.628 30.7846 147.073 36.86 141.191 36.86C135.31 36.86 131.754 30.7846 131.754 23.339ZM134.354 23.339C134.354 30.6709 136.265 36.6327 141.191 36.6327C146.117 36.6327 148.069 30.6709 148.069 23.339C148.069 16.0071 146.084 10.0454 141.191 10.0454C136.299 10.0454 134.354 16.0004 134.354 23.339Z" fill="black"/>
<path d="M155.514 12.3781C155.514 13.2937 155.246 16.2746 153.067 17.3841C153.91 16.2746 154.137 14.6371 153.87 14.0222C152.727 14.0222 152.225 13.1801 152.192 12.3781C152.152 11.4624 152.92 10.7005 153.87 10.7005C154.785 10.6938 155.514 11.4557 155.514 12.3781Z" fill="black"/>
<path d="M131.754 23.339C131.754 15.8534 135.423 9.81812 141.191 9.81812C146.959 9.81812 150.628 15.8534 150.628 23.339C150.628 30.7846 147.073 36.86 141.191 36.86C135.31 36.86 131.754 30.7846 131.754 23.339ZM134.354 23.339C134.354 30.6709 136.265 36.6327 141.191 36.6327C146.117 36.6327 148.069 30.6709 148.069 23.339C148.069 16.0071 146.084 10.0454 141.191 10.0454C136.299 10.0454 134.354 16.0004 134.354 23.339Z" stroke="black" stroke-width="0.7499" stroke-miterlimit="10"/>
<path d="M155.514 12.3781C155.514 13.2937 155.246 16.2746 153.067 17.3841C153.91 16.2746 154.137 14.6371 153.87 14.0222C152.727 14.0222 152.225 13.1801 152.192 12.3781C152.152 11.4624 152.92 10.7005 153.87 10.7005C154.785 10.6938 155.514 11.4557 155.514 12.3781Z" stroke="black" stroke-width="0.7499" stroke-miterlimit="10"/>
<path d="M39.4268 31.2659C39.4268 28.7662 38.2104 26.4269 36.1585 24.9967C38.2104 23.573 39.4268 21.2271 39.4268 18.7341V17.2169H32.5828C31.3731 17.2169 30.3906 18.1994 30.3906 19.4092V20.0642C30.3906 22.0291 28.7932 23.6265 26.8282 23.6265H18.1863V2.75364H26.8215C28.7932 2.75364 30.3839 4.35102 30.3906 6.316V11.8367H39.4268V7.63267C39.4268 3.422 36.0048 0 31.7874 0H31.7808H5.58105V2.75364C7.54603 2.75364 9.14341 4.35102 9.14341 6.316C9.14341 6.316 9.14341 6.316 9.14341 6.32268V35.4699H18.1863V26.3802H26.8215C28.7932 26.3802 30.3839 27.9775 30.3906 29.9425V43.6773C30.3906 45.649 28.7932 47.2397 26.8215 47.2397H18.1863V43.0223C18.1863 41.8126 17.2038 40.8301 15.9941 40.8301H9.1501V43.6706C9.1501 45.6356 7.5594 47.233 5.58774 47.233C5.58774 47.233 5.58774 47.233 5.58105 47.233V49.9866H31.7808C35.9981 49.9866 39.4201 46.5713 39.4268 42.354C39.4268 42.354 39.4268 42.354 39.4268 42.3473V31.2659Z" fill="black"/>
<path d="M20.3248 37.9094H25.518C26.7277 37.9094 27.7102 36.9269 27.7102 35.7172V35.2226H2.68681V14.2896H4.2775C5.48723 14.2896 6.46972 13.3071 6.46972 12.0974V11.6028H0V37.9094H20.3248Z" fill="black"/>
<path d="M18.1865 12.8125H48.6504V15.1785L42.722 21.9757L57.7868 34.6411V36.7331H39.427" stroke="black" stroke-width="2.63735" stroke-miterlimit="10"/>
</g>
<defs>
<clipPath id="clip0_375_3843">
<rect width="156.65" height="50" fill="white"/>
</clipPath>
</defs>
</svg>
