<svg width="24" height="24" viewBox="0 0 24 24" fill="none" xmlns="http://www.w3.org/2000/svg">
    <path
        d="M4.615 19.832C4.155 19.832 3.771 19.678 3.463 19.37C3.15433 19.0614 3 18.677 3 18.217V7.44703C3 6.98703 3.15433 6.60303 3.463 6.29503C3.771 5.98636 4.155 5.83203 4.615 5.83203H19.385C19.845 5.83203 20.229 5.98636 20.537 6.29503C20.8457 6.60303 21 6.98703 21 7.44703V18.217C21 18.677 20.846 19.061 20.538 19.369C20.2293 19.6777 19.845 19.832 19.385 19.832H4.615ZM20 7.71703L12.448 12.661C12.3773 12.6984 12.306 12.7294 12.234 12.754C12.162 12.7787 12.084 12.7914 12 12.792C11.9167 12.792 11.8387 12.7794 11.766 12.754C11.6933 12.7287 11.622 12.6977 11.552 12.661L4 7.71703V18.217C4 18.3964 4.05767 18.5437 4.173 18.659C4.28833 18.7744 4.43567 18.832 4.615 18.832H19.385C19.5643 18.832 19.7117 18.7744 19.827 18.659C19.9423 18.5437 20 18.3964 20 18.217V7.71703ZM12 11.832L19.692 6.83203H4.308L12 11.832ZM4 7.92803V7.11703V7.15103V6.83203V7.15203V7.10003V7.92803Z"
        fill="black" />
</svg>
    