<svg width="24" height="24" viewBox="0 0 24 24" fill="none" xmlns="http://www.w3.org/2000/svg">
    <path
        d="M12.0003 20.509C13.8803 18.873 15.3663 17.2094 16.4583 15.518C17.5503 13.826 18.0963 12.3627 18.0963 11.128C18.0963 9.2987 17.5173 7.7887 16.3593 6.59803C15.2013 5.40736 13.7483 4.81236 12.0003 4.81303C10.253 4.81303 8.79996 5.40803 7.6413 6.59803C6.48263 7.78803 5.90363 9.29803 5.9043 11.128C5.9043 12.3627 6.4503 13.826 7.5423 15.518C8.63496 17.2094 10.121 18.8737 12.0003 20.509ZM12.0003 21.388C11.8436 21.388 11.687 21.3624 11.5303 21.311C11.3743 21.2597 11.2303 21.1764 11.0983 21.061C10.387 20.4077 9.66596 19.6794 8.9353 18.876C8.20396 18.0734 7.53996 17.2424 6.9433 16.383C6.34663 15.523 5.85763 14.6454 5.4763 13.75C5.09496 12.8547 4.9043 11.9807 4.9043 11.128C4.9043 9.0127 5.59296 7.26803 6.9703 5.89403C8.3483 4.51936 10.025 3.83203 12.0003 3.83203C13.9756 3.83203 15.6523 4.51936 17.0303 5.89403C18.4076 7.26803 19.0963 9.0127 19.0963 11.128C19.0963 11.9807 18.9056 12.8517 18.5243 13.741C18.143 14.6297 17.657 15.507 17.0663 16.373C16.4763 17.2397 15.816 18.071 15.0853 18.867C14.354 19.663 13.6326 20.388 12.9213 21.042C12.794 21.1574 12.6493 21.244 12.4873 21.302C12.3246 21.3594 12.1623 21.388 12.0003 21.388ZM12.0033 12.563C12.4486 12.563 12.8286 12.4044 13.1433 12.087C13.458 11.7704 13.6153 11.3894 13.6153 10.944C13.6153 10.4987 13.457 10.1187 13.1403 9.80403C12.823 9.48936 12.442 9.33203 11.9973 9.33203C11.5526 9.33203 11.1726 9.4907 10.8573 9.80803C10.5426 10.1247 10.3853 10.5057 10.3853 10.951C10.3853 11.3964 10.5436 11.7764 10.8603 12.091C11.1776 12.4057 11.5586 12.563 12.0033 12.563Z"
        fill="black" />
</svg>
    