<svg width="30" height="30" viewBox="0 0 30 30" fill="none" xmlns="http://www.w3.org/2000/svg">
    <path
        d="M26.4676 18.7853L20.9317 16.3044C20.6808 16.197 20.4072 16.1537 20.1354 16.1787C19.8637 16.2037 19.6025 16.296 19.3754 16.4474C19.3524 16.4622 19.3304 16.4786 19.3098 16.4966L16.4164 18.9576C16.3864 18.9739 16.353 18.9831 16.3188 18.9843C16.2846 18.9855 16.2507 18.9788 16.2195 18.9646C14.3598 18.0669 12.4332 16.1521 11.532 14.3181C11.517 14.2875 11.5092 14.2538 11.5092 14.2197C11.5092 14.1855 11.517 14.1519 11.532 14.1212L14.0012 11.1915C14.0189 11.1699 14.0353 11.1472 14.0504 11.1236C14.1997 10.8956 14.2899 10.6341 14.3128 10.3626C14.3357 10.0911 14.2906 9.81821 14.1817 9.56849L11.7184 4.04193C11.5785 3.71569 11.3366 3.44362 11.0289 3.26655C10.7213 3.08948 10.3645 3.01697 10.0121 3.05989C8.48075 3.26122 7.07507 4.01326 6.05777 5.17548C5.04048 6.3377 4.48118 7.83058 4.48439 9.37513C4.48439 18.5509 11.9492 26.0158 21.125 26.0158C22.6695 26.0187 24.1622 25.4593 25.3244 24.4421C26.4866 23.4248 27.2387 22.0193 27.4402 20.488C27.4831 20.1373 27.4116 19.7821 27.2363 19.4753C27.0611 19.1685 26.7915 18.9265 26.4676 18.7853ZM21.125 24.6095C12.725 24.6095 5.89064 17.7751 5.89064 9.37513C5.88672 8.1727 6.32072 7.00998 7.11155 6.1042C7.90238 5.19843 8.99594 4.61156 10.1879 4.45325H10.2149C10.2621 4.45413 10.3079 4.46926 10.3464 4.49666C10.3849 4.52405 10.4142 4.56243 10.4305 4.60677L12.9031 10.1275C12.9172 10.1582 12.9245 10.1915 12.9245 10.2253C12.9245 10.2591 12.9172 10.2925 12.9031 10.3232L10.4293 13.2599C10.4109 13.2809 10.394 13.3032 10.3789 13.3267C10.2241 13.563 10.133 13.8353 10.1143 14.1172C10.0956 14.3991 10.15 14.681 10.2723 14.9357C11.3117 17.0638 13.4563 19.1919 15.6078 20.2314C15.864 20.353 16.1473 20.4061 16.4301 20.3855C16.7129 20.365 16.9856 20.2715 17.2215 20.1142C17.2438 20.099 17.266 20.0826 17.2871 20.065L20.1793 17.604C20.2079 17.5887 20.2394 17.5797 20.2718 17.5777C20.3041 17.5756 20.3366 17.5806 20.3668 17.5923L25.9039 20.0732C25.9492 20.0924 25.9872 20.1254 26.0126 20.1675C26.0381 20.2096 26.0496 20.2585 26.0457 20.3075C25.8882 21.5001 25.3019 22.5944 24.3963 23.3861C23.4908 24.1779 22.3279 24.6127 21.125 24.6095Z"
        fill="black" />
</svg>
    