<svg width="30" height="30" viewBox="0 0 30 30" fill="none" xmlns="http://www.w3.org/2000/svg">
    <path
        d="M24.356 25.1927L16.5285 17.3652C15.9035 17.8977 15.1848 18.3098 14.3723 18.6014C13.5598 18.8931 12.7431 19.0389 11.9223 19.0389C9.9206 19.0389 8.22643 18.346 6.83977 16.9602C5.4531 15.5735 4.75977 13.8798 4.75977 11.8789C4.75977 9.87809 5.45227 8.18351 6.83727 6.79518C8.2231 5.40601 9.91643 4.71143 11.9173 4.71143C13.9189 4.71143 15.6139 5.40476 17.0023 6.79143C18.3906 8.17809 19.0848 9.87268 19.0848 11.8752C19.0848 12.7435 18.931 13.5839 18.6235 14.3964C18.3152 15.2089 17.911 15.9039 17.411 16.4814L25.2385 24.3077L24.356 25.1927ZM11.9223 17.7877C13.5806 17.7877 14.981 17.2168 16.1235 16.0752C17.2652 14.9335 17.836 13.5331 17.836 11.8739C17.836 10.2156 17.2652 8.81559 16.1235 7.67393C14.9818 6.53226 13.5818 5.96143 11.9235 5.96143C10.2652 5.96143 8.86477 6.53226 7.72227 7.67393C6.5806 8.81559 6.00977 10.2156 6.00977 11.8739C6.00977 13.5323 6.5806 14.9323 7.72227 16.0739C8.86393 17.2156 10.2639 17.7877 11.9223 17.7877Z"
        fill="black" />
</svg>
    